<svg xmlns="http://www.w3.org/2000/svg" width="452.295" height="302.146" viewBox="0 0 452.295 302.146">
    <defs>
        <clipPath id="y34ch3toba">
            <path data-name="Rectangle 30" style="fill:none" d="M0 0h452.295v216.065H0z"/>
        </clipPath>
        <clipPath id="aze7i4lwab">
            <path data-name="Rectangle 22" style="fill:none" d="M0 0h132.376v31.5H0z"/>
        </clipPath>
    </defs>
    <g data-name="Apple Music Lockup-iPad-Horizontal-Mobile">
        <g data-name="Group 110" style="clip-path:url(#y34ch3toba)" transform="translate(0 61.342)">
            <path data-name="Rectangle 34" transform="translate(26.262 10.739)" style="fill:#0044d0" d="M0 0h398.348v73.2H0z"/>
            <path data-name="Rectangle 35" transform="translate(340.672 177.635)" style="fill:#0044d0" d="M0 0h101.721v31.476H0z"/>
            <path data-name="Path 118" d="M419.2 201.363h-3.6v6.661h3.6a3.334 3.334 0 1 0 0-6.661" transform="translate(-41.83 -15.006)" style="fill:#fff"/>
            <path data-name="Path 119" d="M467.261 185.225h-85.2c-11.785 0-21.341 9.994-21.341 22.322s9.556 22.322 21.341 22.322h85.2c11.786 0 21.34-9.994 21.34-22.322s-9.554-22.322-21.34-22.322m-67.755 14.935h-11.758v5.478h10.035v6.622h-10.035v8.868h-8.234v-27.589h19.993zm18.234 20.968s-1.341-3.508-1.685-4.375c-.651-1.774-1.265-3.7-3.983-3.7h-1.992v8.079h-8.273v-27.593h12.487c7.392 0 11.068 4.257 11.068 9.144a7.521 7.521 0 0 1-4.9 7.489c1.034.59 2.337.946 4.443 6.464.23.552 1.724 4.493 1.724 4.493zm30.6 0h-20.562v-27.589h19.993v6.622h-11.759v4.02h9v6.148h-9v4.139h12.333zm23.06 0h-20.562v-27.589h19.993v6.622h-11.759v4.02h9v6.148h-9v4.139h12.333z" transform="translate(-36.306 -13.803)" style="fill:#fff"/>
            <path data-name="Path 120" d="M405.174 0H47.122C21.1 0 0 22.067 0 49.287s21.1 49.288 47.122 49.288h358.052c26.025 0 47.121-22.067 47.121-49.287S431.2 0 405.174 0M92.626 51.566A40.9 40.9 0 0 1 90.96 63.1a29.576 29.576 0 0 1-5.175 10.141 26.031 26.031 0 0 1-9 7.177 29.218 29.218 0 0 1-13.139 2.732 28.888 28.888 0 0 1-12.735-2.639 26.319 26.319 0 0 1-9.043-7.038 29.417 29.417 0 0 1-5.356-10.094 39.875 39.875 0 0 1-1.755-11.808V16.837H54.2v38.526a15.818 15.818 0 0 0 .585 4.306 12.2 12.2 0 0 0 1.71 3.7 8.292 8.292 0 0 0 2.925 2.593 8.911 8.911 0 0 0 11.43-2.593 11.691 11.691 0 0 0 1.755-3.7 15.853 15.853 0 0 0 .585-4.306V16.837h19.436zm70.556 30.1h-21.329l-22.408-40.751v40.749h-17.819V16.837h23.758l19.889 36.118V16.837h17.909zm53.005 0h-44.006V16.837h19.439v49.176h24.567zm65.877-19.633a31.753 31.753 0 0 1-6.434 10.835 30.527 30.527 0 0 1-10.71 7.5 41.756 41.756 0 0 1-29.832.046 31.138 31.138 0 0 1-10.71-7.363 30.345 30.345 0 0 1-6.48-10.788 39.028 39.028 0 0 1-2.159-13.012 37.717 37.717 0 0 1 2.34-13.428 30.782 30.782 0 0 1 6.75-10.743 31.288 31.288 0 0 1 10.754-7.132 41.151 41.151 0 0 1 28.754 0 31.228 31.228 0 0 1 10.8 7.132 30.847 30.847 0 0 1 6.75 10.743 39.305 39.305 0 0 1 .179 26.209m67.047 8.8a24.289 24.289 0 0 1-4.905 5.233 32.281 32.281 0 0 1-21.284 7.085 38.269 38.269 0 0 1-14.489-2.593 30 30 0 0 1-17.413-17.827 38.012 38.012 0 0 1-2.3-13.382 38.4 38.4 0 0 1 2.3-13.428 31.075 31.075 0 0 1 6.66-10.789 30.391 30.391 0 0 1 10.754-7.178 38.287 38.287 0 0 1 14.489-2.593 34.552 34.552 0 0 1 11.295 1.668 34.111 34.111 0 0 1 8.234 4.028 26.981 26.981 0 0 1 5.49 4.862 22.5 22.5 0 0 1 2.88 4.168l-14.673 10.089a22.584 22.584 0 0 0-1.53-2.593 13.369 13.369 0 0 0-2.61-2.825 15.964 15.964 0 0 0-3.869-2.316 13.064 13.064 0 0 0-5.221-.973 12.642 12.642 0 0 0-6.028 1.435 13.182 13.182 0 0 0-4.5 3.891 18.813 18.813 0 0 0-2.79 5.694 23.309 23.309 0 0 0-.99 6.853 22.838 22.838 0 0 0 .99 6.807 18.285 18.285 0 0 0 2.79 5.6 12.847 12.847 0 0 0 10.529 5.186 13.968 13.968 0 0 0 6.03-1.158 14.184 14.184 0 0 0 3.96-2.686 13 13 0 0 0 2.339-3.056q.811-1.527 1.08-2.176l14.85 9.724q-.452.741-2.07 3.241m45.446 10.835-15.75-24.722a27.008 27.008 0 0 1-2.428 1.39q-1.442.743-2.16 1.2v22.138h-19.44V16.837h19.439v23.338a69.189 69.189 0 0 0 7.424-5.649 63.175 63.175 0 0 0 6.029-6.02 52.865 52.865 0 0 0 4.589-6.067 43.945 43.945 0 0 0 3.106-5.6h20.968a68.994 68.994 0 0 1-8.955 16.021A74.089 74.089 0 0 1 393.3 47.213l25.29 34.451z" style="fill:#fff"/>
            <path data-name="Path 121" d="M52.588 169H38.047l-3.054-8.746h-18.06L13.946 169H0l16.8-47.828h19.056zm-32.136-19.613h11.155l-5.577-15.715z" transform="translate(0 -9.03)" style="fill:#fff"/>
            <path data-name="Path 122" d="M86.313 121.167a21.041 21.041 0 0 1 6.849 1.093 15.781 15.781 0 0 1 5.587 3.28 15.3 15.3 0 0 1 3.757 5.4 18.928 18.928 0 0 1 1.363 7.447 19.6 19.6 0 0 1-1.331 7.482 15.282 15.282 0 0 1-3.661 5.432 15.449 15.449 0 0 1-5.559 3.314 21.157 21.157 0 0 1-7.018 1.125h-9.055V169H62.9v-47.833zm-2.827 23.026a5.6 5.6 0 0 0 6.042-5.773A5.875 5.875 0 0 0 88 134.48a5.649 5.649 0 0 0-4.515-1.766h-6.24v11.479z" transform="translate(-6.331 -9.03)" style="fill:#fff"/>
            <path data-name="Path 123" d="M135.482 121.167a21.041 21.041 0 0 1 6.849 1.093 15.781 15.781 0 0 1 5.587 3.28 15.3 15.3 0 0 1 3.758 5.4 18.928 18.928 0 0 1 1.363 7.447 19.6 19.6 0 0 1-1.331 7.482 15.282 15.282 0 0 1-3.661 5.432 15.449 15.449 0 0 1-5.559 3.314 21.157 21.157 0 0 1-7.021 1.127h-9.053V169h-14.342v-47.833zm-2.827 23.026a5.6 5.6 0 0 0 6.042-5.773 5.875 5.875 0 0 0-1.527-3.94 5.649 5.649 0 0 0-4.515-1.766h-6.242v11.479z" transform="translate(-11.28 -9.03)" style="fill:#fff"/>
            <path data-name="Path 124" d="M193.709 157.449V169H161.24v-47.833h14.342v36.282z" transform="translate(-16.229 -9.03)" style="fill:#fff"/>
            <path data-name="Path 125" d="M237.494 157.449V169h-35.722v-47.833H236.5v11.547h-20.386v6.9h15.6v10.659h-15.6v7.174z" transform="translate(-20.308 -9.03)" style="fill:#fff"/>
            <path data-name="Path 126" d="M303.755 169v-31.981l-9.561 27.673h-8.9l-9.628-27.673V169h-13.209v-47.833h19.719l7.769 22.957 7.835-22.957h19.255V169z" transform="translate(-26.416 -9.03)" style="fill:#fff"/>
            <path data-name="Path 127" d="M350.362 170.089a21.308 21.308 0 0 1-9.4-1.947 19.421 19.421 0 0 1-6.672-5.193 21.722 21.722 0 0 1-3.951-7.447 29.411 29.411 0 0 1-1.3-8.712v-25.623h14.351v28.424a11.664 11.664 0 0 0 .432 3.177 9.016 9.016 0 0 0 1.261 2.733 6.125 6.125 0 0 0 2.158 1.913 6.573 6.573 0 0 0 8.432-1.913 8.629 8.629 0 0 0 1.3-2.733 11.735 11.735 0 0 0 .432-3.177v-28.424h14.341v25.623a30.192 30.192 0 0 1-1.229 8.506 21.842 21.842 0 0 1-3.817 7.482 19.229 19.229 0 0 1-6.64 5.295 21.565 21.565 0 0 1-9.694 2.016" transform="translate(-33.118 -9.03)" style="fill:#fff"/>
            <path data-name="Path 128" d="M408.48 140.552a19.922 19.922 0 0 1 5.411 1.913 16.385 16.385 0 0 1 4.15 3.109 13.592 13.592 0 0 1 2.689 4.066 12.234 12.234 0 0 1 .963 4.851 14.816 14.816 0 0 1-1.2 5.876 13.4 13.4 0 0 1-3.718 4.954 18.617 18.617 0 0 1-6.441 3.416 30.671 30.671 0 0 1-9.356 1.263 28.931 28.931 0 0 1-16.135-4.447 22.64 22.64 0 0 1-4.15-3.326q-1.493-1.6-1.959-2.14l8.167-7.579a21.155 21.155 0 0 0 1.56 1.571 18.19 18.19 0 0 0 3.021 2.221 23.772 23.772 0 0 0 4.349 2.015 15.991 15.991 0 0 0 5.411.888 7.544 7.544 0 0 0 4.283-1.095 3.329 3.329 0 0 0 1.626-2.875 3.435 3.435 0 0 0-1.062-2.362 7.02 7.02 0 0 0-3.718-1.677q-.465-.136-1.693-.376t-2.622-.548q-1.395-.307-2.689-.582t-1.826-.41a21.225 21.225 0 0 1-5.08-1.644 14.14 14.14 0 0 1-3.984-2.805 11.992 11.992 0 0 1-2.622-4.039 14.516 14.516 0 0 1-.929-5.408 14.327 14.327 0 0 1 1.394-6.4 13.711 13.711 0 0 1 4.016-4.86 18.713 18.713 0 0 1 6.308-3.08 29.9 29.9 0 0 1 8.266-1.061 26.8 26.8 0 0 1 14.575 3.929 19.92 19.92 0 0 1 3.751 2.937q1.327 1.4 1.594 1.743l-8.1 7.653-1.759-1.4a21.645 21.645 0 0 0-2.722-1.81 21.387 21.387 0 0 0-3.519-1.571 12.727 12.727 0 0 0-4.216-.684 5.984 5.984 0 0 0-4.017 1.094 3.436 3.436 0 0 0-1.229 2.664 3.622 3.622 0 0 0 1.1 2.528 6.9 6.9 0 0 0 3.619 1.708q.4.068 1.594.307t2.557.546q1.358.308 2.622.547t1.726.376" transform="translate(-38.119 -8.942)" style="fill:#fff"/>
            <path data-name="Rectangle 29" transform="translate(387.557 112.137)" style="fill:#fff" d="M0 0h14.342v47.829H0z"/>
            <path data-name="Path 129" d="M451.675 145.062a28.323 28.323 0 0 1 1.694-9.907 22.925 22.925 0 0 1 4.913-7.96 22.428 22.428 0 0 1 7.934-5.3 28.242 28.242 0 0 1 10.69-1.913 25.5 25.5 0 0 1 8.333 1.23 25.111 25.111 0 0 1 6.075 2.973 19.9 19.9 0 0 1 4.051 3.587 16.563 16.563 0 0 1 2.124 3.074l-10.823 7.454a16.755 16.755 0 0 0-1.129-1.913 9.861 9.861 0 0 0-1.926-2.084 11.777 11.777 0 0 0-2.855-1.708 9.649 9.649 0 0 0-3.851-.717 9.323 9.323 0 0 0-4.448 1.06 9.715 9.715 0 0 0-3.32 2.87 13.878 13.878 0 0 0-2.059 4.2 17.2 17.2 0 0 0-.73 5.056 16.856 16.856 0 0 0 .73 5.022 13.486 13.486 0 0 0 2.059 4.134 9.474 9.474 0 0 0 7.768 3.826 10.293 10.293 0 0 0 4.449-.854 10.405 10.405 0 0 0 2.921-1.981 9.6 9.6 0 0 0 1.725-2.258q.6-1.127.8-1.606l10.955 7.174q-.333.548-1.527 2.391a17.9 17.9 0 0 1-3.618 3.86 23.823 23.823 0 0 1-15.7 5.227 28.242 28.242 0 0 1-10.69-1.913 22.13 22.13 0 0 1-12.847-13.153 28.034 28.034 0 0 1-1.694-9.873" transform="translate(-45.46 -8.942)" style="fill:#fff"/>
            <path data-name="Path 130" d="M266.594 33.217a1.7 1.7 0 0 1 2.672-1.435L294.9 50.161a1.778 1.778 0 0 1 0 2.871L269.266 71.41a1.7 1.7 0 0 1-2.672-1.435z" transform="translate(-26.832 -2.345)" style="fill:#fff"/>
            <path data-name="Path 131" d="M24.576 213.675a11.473 11.473 0 0 1-.7 4 9.758 9.758 0 0 1-5.364 5.654 11.057 11.057 0 0 1-4.463.85 11.086 11.086 0 0 1-4.443-.85 9.572 9.572 0 0 1-5.344-5.609 11.6 11.6 0 0 1-.7-4.045v-21.5h4v20.348a7.919 7.919 0 0 0 1.756 5.534 6.121 6.121 0 0 0 4.749 1.919 5.945 5.945 0 0 0 4.809-2.008 8.169 8.169 0 0 0 1.7-5.445v-20.346h4z" transform="translate(-.358 -14.321)" style="fill:#fff"/>
            <path data-name="Path 132" d="M38.053 213.184v10.28h-4v-31.287h9.467a10.335 10.335 0 0 1 4.473.893 8.734 8.734 0 0 1 3.077 2.369 9.858 9.858 0 0 1 1.777 3.374 13.349 13.349 0 0 1 .579 3.911 12.979 12.979 0 0 1-.619 4.045 9.718 9.718 0 0 1-1.836 3.33 8.525 8.525 0 0 1-3.074 2.257 10.581 10.581 0 0 1-4.332.826zm11.368-10.459a7.223 7.223 0 0 0-.36-2.2 6.652 6.652 0 0 0-1.081-2.064 5.429 5.429 0 0 0-1.841-1.509 5.806 5.806 0 0 0-2.683-.577h-5.4v12.6h5.4a5.716 5.716 0 0 0 2.722-.6 5.809 5.809 0 0 0 1.841-1.509 6.1 6.1 0 0 0 1.061-2.019 7.271 7.271 0 0 0 .34-2.13" transform="translate(-3.427 -14.321)" style="fill:#fff"/>
            <path data-name="Path 133" d="M88.393 192.176v4.2h-8.166v27.085h-4v-27.083H68.1v-4.2z" transform="translate(-6.854 -14.321)" style="fill:#fff"/>
            <path data-name="Path 134" d="M119.2 207.806a19.561 19.561 0 0 1-.981 6.213 16.259 16.259 0 0 1-2.822 5.207 13.464 13.464 0 0 1-4.483 3.576 14.347 14.347 0 0 1-11.969.022 13.693 13.693 0 0 1-4.5-3.508 15.492 15.492 0 0 1-2.842-5.185 20.057 20.057 0 0 1-.981-6.325 19.684 19.684 0 0 1 1-6.324 16.313 16.313 0 0 1 2.862-5.23 13.467 13.467 0 0 1 4.5-3.553 14.182 14.182 0 0 1 11.848 0 13.458 13.458 0 0 1 4.5 3.553 16.331 16.331 0 0 1 2.862 5.23 19.709 19.709 0 0 1 1 6.324M104.91 195.6a9.043 9.043 0 0 0-4.323 1 9.759 9.759 0 0 0-3.182 2.7 12.328 12.328 0 0 0-1.981 3.881 15.847 15.847 0 0 0 0 9.19 12.037 12.037 0 0 0 1.981 3.859 9.852 9.852 0 0 0 3.182 2.676 9.808 9.808 0 0 0 8.646 0 9.861 9.861 0 0 0 3.182-2.676 11.752 11.752 0 0 0 1.961-3.859 16.3 16.3 0 0 0 0-9.19 12.031 12.031 0 0 0-1.961-3.881 9.768 9.768 0 0 0-3.182-2.7 9.045 9.045 0 0 0-4.323-1" transform="translate(-9.121 -14.264)" style="fill:#fff"/>
            <path data-name="Path 135" d="M136.6 217.282q.12.135.6.559a8.226 8.226 0 0 0 1.281.893 9.242 9.242 0 0 0 1.961.827 8.808 8.808 0 0 0 2.6.357 5.678 5.678 0 0 0 4.023-1.469 5.144 5.144 0 0 0 1.581-3.962 6.742 6.742 0 0 0-.26-1.757 4.818 4.818 0 0 0-.9-1.758 4.91 4.91 0 0 0-1.761-1.335 6.606 6.606 0 0 0-2.842-.534H140.6v-3.665h1.921a4.641 4.641 0 0 0 5.124-4.783 5.8 5.8 0 0 0-.3-1.809 4.861 4.861 0 0 0-.9-1.632 4.55 4.55 0 0 0-1.521-1.162 5.013 5.013 0 0 0-2.2-.447 6.364 6.364 0 0 0-2.141.335 6.965 6.965 0 0 0-1.622.805 7.645 7.645 0 0 0-1.14.938q-.461.469-.66.692l-2.4-3.128c.107-.149.353-.431.74-.85a9.247 9.247 0 0 1 1.561-1.3 10.6 10.6 0 0 1 2.422-1.185 11.249 11.249 0 0 1 7.305.2 7.753 7.753 0 0 1 4.4 4.693 9.936 9.936 0 0 1 .54 3.263 8.231 8.231 0 0 1-.38 2.525 8.631 8.631 0 0 1-.981 2.1 6.171 6.171 0 0 1-1.381 1.52 4.557 4.557 0 0 1-1.621.826 5.929 5.929 0 0 1 1.8.76 6.766 6.766 0 0 1 1.741 1.543 8.381 8.381 0 0 1 1.3 2.324 8.8 8.8 0 0 1 .521 3.151 10.715 10.715 0 0 1-.541 3.352 8.305 8.305 0 0 1-4.643 5.118 10.451 10.451 0 0 1-4.343.826 13.9 13.9 0 0 1-3.783-.452 11.823 11.823 0 0 1-2.641-1.062 8.92 8.92 0 0 1-1.682-1.2q-.619-.586-.861-.858z" transform="translate(-13.511 -14.264)" style="fill:#fff"/>
            <path data-name="Path 136" d="m183.918 217.876-8.646-20.426v26.013h-4v-31.287h5.813l8.618 20.113 8.579-20.113h5.732v31.288h-4V197.45l-8.686 20.426z" transform="translate(-17.238 -14.321)" style="fill:#fff"/>
            <path data-name="Path 137" d="M237.1 207.806a19.561 19.561 0 0 1-.981 6.213 16.259 16.259 0 0 1-2.822 5.207 13.464 13.464 0 0 1-4.483 3.576 14.347 14.347 0 0 1-11.969.022 13.693 13.693 0 0 1-4.5-3.508 15.492 15.492 0 0 1-2.842-5.185 20.057 20.057 0 0 1-.981-6.325 19.685 19.685 0 0 1 1-6.324 16.313 16.313 0 0 1 2.862-5.23 13.466 13.466 0 0 1 4.5-3.553 14.182 14.182 0 0 1 11.848 0 13.458 13.458 0 0 1 4.5 3.553 16.331 16.331 0 0 1 2.862 5.23 19.709 19.709 0 0 1 1 6.324m-14.291-12.2a9.043 9.043 0 0 0-4.323 1 9.759 9.759 0 0 0-3.182 2.7 12.328 12.328 0 0 0-1.981 3.881 15.847 15.847 0 0 0 0 9.19 12.037 12.037 0 0 0 1.981 3.859 9.852 9.852 0 0 0 3.182 2.676 9.808 9.808 0 0 0 8.646 0 9.862 9.862 0 0 0 3.182-2.676 11.752 11.752 0 0 0 1.961-3.859 16.3 16.3 0 0 0 0-9.19 12.032 12.032 0 0 0-1.961-3.881 9.769 9.769 0 0 0-3.182-2.7 9.045 9.045 0 0 0-4.323-1" transform="translate(-20.987 -14.264)" style="fill:#fff"/>
            <path data-name="Path 138" d="M267.3 192.176v31.287h-5.364l-12.289-24.627v24.627h-4v-31.287h5.124L263.3 217.25v-25.074z" transform="translate(-24.724 -14.321)" style="fill:#fff"/>
            <path data-name="Path 139" d="M293.576 192.176v4.2h-8.166v27.085h-4v-27.083h-8.126v-4.2z" transform="translate(-27.505 -14.321)" style="fill:#fff"/>
            <path data-name="Path 140" d="M320.419 192.176v31.287h-4v-14.168h-13.052v14.168h-4v-31.287h4v12.872h13.049v-12.872z" transform="translate(-30.13 -14.321)" style="fill:#fff"/>
            <path data-name="Path 141" d="M329.165 215.047c.106.15.38.491.821 1.028a10.763 10.763 0 0 0 1.761 1.654 12.565 12.565 0 0 0 2.622 1.52 8.347 8.347 0 0 0 3.4.67 8.111 8.111 0 0 0 4.744-1.249 4.184 4.184 0 0 0 1.781-3.659 4.135 4.135 0 0 0-1.341-3.079 8.705 8.705 0 0 0-4.263-1.919c-.16-.03-.414-.082-.76-.156s-.721-.149-1.121-.223-.788-.156-1.161-.245a8.626 8.626 0 0 0-.92-.179 10.757 10.757 0 0 1-2.842-1 8.866 8.866 0 0 1-2.322-1.74 7.52 7.52 0 0 1-1.564-2.482 8.721 8.721 0 0 1-.56-3.212 10.823 10.823 0 0 1 .58-3.526 8.018 8.018 0 0 1 1.822-2.989 8.952 8.952 0 0 1 3.182-2.076 12.5 12.5 0 0 1 4.663-.78 14.353 14.353 0 0 1 4.563.625 12.091 12.091 0 0 1 3.023 1.453 8.192 8.192 0 0 1 1.8 1.632l.862 1.117-3.083 3.173a34.334 34.334 0 0 0-.76-.938 8.089 8.089 0 0 0-3.543-2.391 9.3 9.3 0 0 0-3.142-.469 7.43 7.43 0 0 0-2.662.425 5.4 5.4 0 0 0-1.821 1.117 4.233 4.233 0 0 0-1.041 1.52 4.288 4.288 0 0 0 .66 4.358 5.427 5.427 0 0 0 3.382 1.788c.213.03.506.09.88.179s.767.171 1.181.245.807.15 1.181.224.681.142.921.2a12.67 12.67 0 0 1 3.687 1.337 9.586 9.586 0 0 1 2.582 2.1 8.319 8.319 0 0 1 1.521 2.637 9.008 9.008 0 0 1 .5 2.995 10.6 10.6 0 0 1-.56 3.375 8.012 8.012 0 0 1-1.841 3.016 9.369 9.369 0 0 1-3.343 2.168 13.782 13.782 0 0 1-5.1.826 13.368 13.368 0 0 1-5.063-.859 14.575 14.575 0 0 1-3.471-1.916 10.235 10.235 0 0 1-2.022-1.98q-.661-.918-.78-1.1z" transform="translate(-32.832 -14.264)" style="fill:#fff"/>
        </g>
        <path data-name="Path 142" d="m27.436 51.965-.979-3.049h-5.148l-.979 3.049h-1.76l4.169-12.715h2.353l4.15 12.715zM23.9 41.057l-2.074 6.193h4.113z" transform="translate(12.43 249.88)" style="fill:#fff"/>
        <path data-name="Path 143" d="M40.5 39.24v12.724h-2.271l-5.2-10.014v10.014H31.34V39.24h2.16l5.3 10.193V39.24z" transform="translate(11.679 249.88)" style="fill:#fff"/>
        <path data-name="Path 144" d="M47.84 39.24a7.667 7.667 0 0 1 2.814.48 5.79 5.79 0 0 1 2.052 1.336 5.639 5.639 0 0 1 1.252 2.014 7.314 7.314 0 0 1 .424 2.522 6.988 6.988 0 0 1-.462 2.608 5.593 5.593 0 0 1-1.3 2 5.769 5.769 0 0 1-2.061 1.289 7.741 7.741 0 0 1-2.72.452H44.49V39.24zm4.772 6.372a5.753 5.753 0 0 0-.282-1.826 4.184 4.184 0 0 0-.847-1.478 4 4 0 0 0-1.421-1 5.017 5.017 0 0 0-1.986-.367h-1.892v9.3h1.892a4.985 4.985 0 0 0 1.986-.367 4.056 4.056 0 0 0 1.412-.988 4.223 4.223 0 0 0 .856-1.468 5.554 5.554 0 0 0 .282-1.807" transform="translate(10.905 249.88)" style="fill:#fff"/>
        <path data-name="Path 145" d="m69.626 51.965-.979-3.049H63.5l-.979 3.049H60.76l4.169-12.715h2.353l4.15 12.715zm-3.539-10.908-2.071 6.193h4.113z" transform="translate(9.947 249.88)" style="fill:#fff"/>
        <path data-name="Path 146" d="M87.431 42.439a6.086 6.086 0 0 0-.311-.414 3.154 3.154 0 0 0-.649-.6 4.4 4.4 0 0 0-1.054-.546 4.256 4.256 0 0 0-1.525-.235 3.989 3.989 0 0 0-1.835.4 4.157 4.157 0 0 0-1.357 1.094 4.877 4.877 0 0 0-.828 1.581 6.183 6.183 0 0 0-.282 1.873 5.851 5.851 0 0 0 .292 1.863 4.711 4.711 0 0 0 .838 1.562 4.194 4.194 0 0 0 1.347 1.083 3.922 3.922 0 0 0 1.826.4 4.382 4.382 0 0 0 1.534-.235 4.17 4.17 0 0 0 1.063-.565 3.543 3.543 0 0 0 .687-.649c.169-.216.292-.386.376-.489l1.355 1.073c-.056.085-.188.264-.386.536a4.386 4.386 0 0 1-.894.866 6.4 6.4 0 0 1-1.506.819 5.973 5.973 0 0 1-2.221.358 5.869 5.869 0 0 1-2.522-.527 5.631 5.631 0 0 1-1.9-1.431 6.292 6.292 0 0 1-1.2-2.108 7.989 7.989 0 0 1-.414-2.569 7.847 7.847 0 0 1 .424-2.607 6.356 6.356 0 0 1 1.211-2.114 5.725 5.725 0 0 1 1.9-1.431 5.84 5.84 0 0 1 2.5-.518 6.349 6.349 0 0 1 2.061.3 6.71 6.71 0 0 1 1.449.706 5.072 5.072 0 0 1 .922.8c.226.264.376.461.461.584z" transform="translate(8.941 249.9)" style="fill:#fff"/>
        <path data-name="Path 147" d="M100.483 39.24v12.724h-1.694V46.2h-5.525v5.76H91.57V39.24h1.694v5.233h5.525V39.24z" transform="translate(8.134 249.88)" style="fill:#fff"/>
        <path data-name="Path 148" d="m111.326 51.965-.979-3.049H105.2l-.979 3.049h-1.76l4.169-12.715h2.353l4.15 12.715zm-3.539-10.908-2.071 6.193h4.113z" transform="translate(7.493 249.88)" style="fill:#fff"/>
        <path data-name="Path 149" d="M124.387 39.24v12.724h-2.268l-5.2-10.014v10.014h-1.689V39.24h2.165l5.3 10.193V39.24z" transform="translate(6.741 249.88)" style="fill:#fff"/>
        <path data-name="Path 150" d="M137.251 42.439a6.086 6.086 0 0 0-.311-.414 3.154 3.154 0 0 0-.649-.6 4.4 4.4 0 0 0-1.054-.546 4.255 4.255 0 0 0-1.525-.235 3.989 3.989 0 0 0-1.835.4 4.157 4.157 0 0 0-1.355 1.092 4.877 4.877 0 0 0-.828 1.581 6.181 6.181 0 0 0-.282 1.873 5.851 5.851 0 0 0 .292 1.863 4.711 4.711 0 0 0 .838 1.562 4.2 4.2 0 0 0 1.346 1.082 3.923 3.923 0 0 0 1.826.4 4.346 4.346 0 0 0 1.534-.235 4.171 4.171 0 0 0 1.064-.565 3.541 3.541 0 0 0 .687-.649c.169-.216.292-.386.376-.489l1.355 1.073c-.056.085-.188.264-.386.536a4.386 4.386 0 0 1-.894.866 6.073 6.073 0 0 1-1.506.819 6.171 6.171 0 0 1-2.221.358 5.869 5.869 0 0 1-2.522-.527 5.632 5.632 0 0 1-1.9-1.431 6.292 6.292 0 0 1-1.2-2.108 7.989 7.989 0 0 1-.414-2.569 7.848 7.848 0 0 1 .424-2.607 6.356 6.356 0 0 1 1.214-2.118 5.725 5.725 0 0 1 1.9-1.431 5.84 5.84 0 0 1 2.5-.518 6.45 6.45 0 0 1 2.07.3 6.709 6.709 0 0 1 1.449.706 5.072 5.072 0 0 1 .922.8 5.33 5.33 0 0 1 .452.584z" transform="translate(6.009 249.9)" style="fill:#fff"/>
        <path data-name="Path 151" d="M149.107 51.964h-7.717V39.24h7.4v1.713h-5.7v3.539h5.092V46.2h-5.092v4.047h6.023z" transform="translate(5.202 249.88)" style="fill:#fff"/>
        <path data-name="Path 152" d="M164.113 39.24v1.713h-3.454v11.011h-1.694V40.953h-3.435V39.24z" transform="translate(4.37 249.88)" style="fill:#fff"/>
        <path data-name="Path 153" d="M177.264 45.6a7.745 7.745 0 0 1-.414 2.522 6.5 6.5 0 0 1-1.2 2.118 5.646 5.646 0 0 1-1.892 1.449 5.791 5.791 0 0 1-2.541.536 5.869 5.869 0 0 1-2.517-.525 5.631 5.631 0 0 1-1.9-1.431 6.292 6.292 0 0 1-1.2-2.108 7.947 7.947 0 0 1-.414-2.569 7.665 7.665 0 0 1 .424-2.569 6.5 6.5 0 0 1 1.214-2.127 5.777 5.777 0 0 1 1.9-1.449 6.209 6.209 0 0 1 5.007 0 5.563 5.563 0 0 1 1.9 1.449 6.5 6.5 0 0 1 1.214 2.127 7.76 7.76 0 0 1 .424 2.579m-6.042-4.96a3.895 3.895 0 0 0-3.172 1.506 4.9 4.9 0 0 0-.838 1.581 6.143 6.143 0 0 0-.292 1.873 5.811 5.811 0 0 0 .292 1.863 4.851 4.851 0 0 0 .838 1.572 4.222 4.222 0 0 0 1.346 1.092 4.321 4.321 0 0 0 3.652 0 4.1 4.1 0 0 0 1.346-1.092 4.737 4.737 0 0 0 .828-1.572 6.322 6.322 0 0 0 0-3.736 4.878 4.878 0 0 0-.828-1.581 4.126 4.126 0 0 0-1.346-1.1 3.923 3.923 0 0 0-1.826-.4" transform="translate(3.802 249.899)" style="fill:#fff"/>
        <path data-name="Path 154" d="m199.4 39.24-2.9 12.724h-2.08l-2.645-9.43-2.626 9.43h-2.1L184.14 39.24h1.7l2.325 10.127 2.823-10.127h1.6l2.8 10.127 2.352-10.127z" transform="translate(2.686 249.88)" style="fill:#fff"/>
        <path data-name="Rectangle 31" transform="translate(203.776 289.121)" style="fill:#fff" d="M0 0h1.694v12.715H0z"/>
        <path data-name="Path 155" d="M216.527 39.24v12.724h-2.268l-5.2-10.014v10.014h-1.689V39.24h2.165l5.3 10.193V39.24z" transform="translate(1.319 249.88)" style="fill:#fff"/>
        <path data-name="Path 156" d="M233.91 48.887v3.078h-9.11V39.24h8.856v3.078h-5.2v1.835h3.972v2.833h-3.972v1.9z" transform="translate(.293 249.88)" style="fill:#fff"/>
        <path data-name="Path 157" d="M242.137 39.24a5.1 5.1 0 0 1 1.751.292 3.856 3.856 0 0 1 1.421.866 4.113 4.113 0 0 1 .96 1.44 5.146 5.146 0 0 1 .348 1.976 5.473 5.473 0 0 1-.339 2 4.054 4.054 0 0 1-.932 1.44 4 4 0 0 1-1.421.885 5.243 5.243 0 0 1-1.788.3h-2.306v3.52h-3.661V39.24zm-.715 6.127a1.428 1.428 0 0 0 1.139-.452 1.643 1.643 0 0 0 .009-2.127 1.416 1.416 0 0 0-1.148-.471h-1.591v3.049z" transform="translate(-.376 249.88)" style="fill:#fff"/>
        <path data-name="Rectangle 32" transform="translate(247.746 289.121)" style="fill:#fff" d="M0 0h3.661v12.715H0z"/>
        <path data-name="Path 158" d="M254.47 45.6a7.741 7.741 0 0 1 .433-2.635 6.283 6.283 0 0 1 1.252-2.118 5.68 5.68 0 0 1 2.024-1.412 6.952 6.952 0 0 1 2.729-.508 6.166 6.166 0 0 1 3.68 1.12 5.422 5.422 0 0 1 1.035.951 4.505 4.505 0 0 1 .546.819l-2.758 1.983a5.094 5.094 0 0 0-.282-.508 2.656 2.656 0 0 0-.489-.555 2.783 2.783 0 0 0-.725-.452 2.526 2.526 0 0 0-2.118.094 2.528 2.528 0 0 0-.847.762 3.731 3.731 0 0 0-.527 1.12 4.843 4.843 0 0 0-.188 1.346 4.727 4.727 0 0 0 .188 1.336 3.731 3.731 0 0 0 .527 1.1 2.392 2.392 0 0 0 1.986 1.016 2.514 2.514 0 0 0 1.129-.226 2.682 2.682 0 0 0 .743-.527 2.529 2.529 0 0 0 .442-.6c.1-.2.169-.339.207-.424l2.8 1.911a273.7 273.7 0 0 0-.386.64 4.685 4.685 0 0 1-.922 1.026 6.264 6.264 0 0 1-1.6.96 6.084 6.084 0 0 1-2.4.424 6.951 6.951 0 0 1-2.729-.508 5.778 5.778 0 0 1-2.024-1.4 6.107 6.107 0 0 1-1.252-2.1 6.888 6.888 0 0 1-.471-2.626" transform="translate(-1.453 249.899)" style="fill:#fff"/>
        <path data-name="Path 159" d="M279.036 44.409a4.94 4.94 0 0 1 1.383.508 4.031 4.031 0 0 1 1.054.828 3.715 3.715 0 0 1 .687 1.082 3.419 3.419 0 0 1 .245 1.289 4.194 4.194 0 0 1-.3 1.562 3.575 3.575 0 0 1-.951 1.322 4.884 4.884 0 0 1-1.638.913 7.467 7.467 0 0 1-2.391.339 7.362 7.362 0 0 1-2.419-.358 7.9 7.9 0 0 1-1.694-.819 5.955 5.955 0 0 1-1.054-.885 22.272 22.272 0 0 1-.5-.565l2.08-2.014a4.364 4.364 0 0 0 .4.414 4.686 4.686 0 0 0 .772.593 6.427 6.427 0 0 0 1.111.536 3.883 3.883 0 0 0 1.384.235 1.828 1.828 0 0 0 1.092-.292.909.909 0 0 0 .414-.762.965.965 0 0 0-.273-.631 1.757 1.757 0 0 0-.951-.442c-.075-.028-.226-.056-.433-.1s-.433-.094-.668-.151-.461-.1-.687-.151-.376-.085-.461-.113a5.542 5.542 0 0 1-1.3-.433 3.825 3.825 0 0 1-1.016-.744 3.136 3.136 0 0 1-.668-1.073 4.362 4.362 0 0 1 .122-3.143 3.564 3.564 0 0 1 1.026-1.289 4.636 4.636 0 0 1 1.609-.819 7.327 7.327 0 0 1 2.108-.282 6.534 6.534 0 0 1 2.174.32 7.166 7.166 0 0 1 1.543.725 5.237 5.237 0 0 1 .96.781c.226.245.358.4.4.461l-2.061 2.033c-.1-.085-.254-.207-.452-.376a6.37 6.37 0 0 0-.7-.48 5.237 5.237 0 0 0-.894-.414 3.093 3.093 0 0 0-1.073-.179 1.469 1.469 0 0 0-1.026.292.945.945 0 0 0-.028 1.374 1.7 1.7 0 0 0 .922.452c.066.009.207.038.4.085s.424.094.649.141.452.1.668.141a2.268 2.268 0 0 1 .423.094" transform="translate(-2.453 249.897)" style="fill:#fff"/>
        <path data-name="Path 160" d="M289.97 52.257a5.241 5.241 0 0 1-2.4-.518 5.02 5.02 0 0 1-1.7-1.383 5.78 5.78 0 0 1-1.007-1.976 8.242 8.242 0 0 1-.329-2.315V39.25h3.661v7.557a3.171 3.171 0 0 0 .113.847 2.422 2.422 0 0 0 .32.725 1.762 1.762 0 0 0 .546.508 1.549 1.549 0 0 0 .8.188 1.647 1.647 0 0 0 .8-.188 1.7 1.7 0 0 0 .555-.508 2.315 2.315 0 0 0 .329-.725 3.171 3.171 0 0 0 .113-.847V39.25h3.661v6.814a8.382 8.382 0 0 1-.311 2.259 5.921 5.921 0 0 1-.969 1.986 4.97 4.97 0 0 1-1.694 1.412 5.4 5.4 0 0 1-2.485.536" transform="translate(-3.222 249.88)" style="fill:#fff"/>
        <path data-name="Path 161" d="M308.971 51.964v-8.508l-2.438 7.36h-2.268l-2.456-7.36v8.508h-3.369V39.24h5.026l1.986 6.108 2-6.108h4.913v12.724z" transform="translate(-4.041 249.88)" style="fill:#fff"/>
        <path data-name="Path 162" d="M326.1 51.964v-8.508l-2.438 7.36H321.4l-2.456-7.36v8.508h-3.374V39.24h5.03l1.976 6.108 2-6.108h4.9v12.724z" transform="translate(-5.049 249.88)" style="fill:#fff"/>
        <path data-name="Path 163" d="M341.8 48.887v3.078h-9.11V39.24h8.856v3.078h-5.2v1.835h3.981v2.833h-3.981v1.9z" transform="translate(-6.056 249.88)" style="fill:#fff"/>
        <path data-name="Path 164" d="M352.316 46.91q.169.113.367.226a2.043 2.043 0 0 1 .442.4 4.07 4.07 0 0 1 .527.838 14.11 14.11 0 0 1 .631 1.506c.019.056.075.2.16.424s.169.461.264.7c.1.292.216.6.339.941h-3.926c-.113-.3-.216-.584-.32-.856-.094-.254-.179-.489-.254-.7s-.132-.367-.169-.461c-.066-.207-.141-.4-.216-.612a1.956 1.956 0 0 0-.311-.546 1.5 1.5 0 0 0-.48-.4 1.559 1.559 0 0 0-.743-.151h-.875v3.727h-3.662V39.24h5.525a6.037 6.037 0 0 1 2.146.348 4.549 4.549 0 0 1 1.534.913 3.683 3.683 0 0 1 .913 1.336 4.418 4.418 0 0 1 .3 1.619 3.971 3.971 0 0 1-.272 1.544 3.724 3.724 0 0 1-.64 1.045 2.92 2.92 0 0 1-.715.612 4.4 4.4 0 0 1-.565.254m-3-1.543a1.454 1.454 0 0 0 1.139-.452 1.614 1.614 0 0 0 .009-2.127 1.422 1.422 0 0 0-1.139-.471h-1.591v3.049z" transform="translate(-6.727 249.88)" style="fill:#fff"/>
        <path data-name="Path 165" d="M367.267 39.24a5.1 5.1 0 0 1 1.75.292 3.856 3.856 0 0 1 1.421.866 4.11 4.11 0 0 1 .96 1.44 5.145 5.145 0 0 1 .348 1.976 5.474 5.474 0 0 1-.339 2 4.054 4.054 0 0 1-.932 1.44 4 4 0 0 1-1.421.885 5.242 5.242 0 0 1-1.788.3h-2.306v3.52h-3.66V39.24zm-.715 6.127a1.428 1.428 0 0 0 1.139-.452 1.643 1.643 0 0 0 .009-2.127 1.416 1.416 0 0 0-1.148-.471h-1.59v3.049z" transform="translate(-7.74 249.88)" style="fill:#fff"/>
        <path data-name="Path 166" d="M382.066 46.91q.169.113.367.226a2.044 2.044 0 0 1 .442.4 4.071 4.071 0 0 1 .527.838 14.111 14.111 0 0 1 .631 1.506c.019.056.075.2.16.424s.169.461.264.7c.1.292.216.6.339.941h-3.926c-.113-.3-.217-.584-.32-.856-.094-.254-.179-.489-.254-.7s-.132-.367-.169-.461c-.066-.207-.141-.4-.217-.612a1.956 1.956 0 0 0-.311-.546 1.5 1.5 0 0 0-.48-.4 1.56 1.56 0 0 0-.744-.151h-.875v3.727h-3.66V39.24h5.524a6.037 6.037 0 0 1 2.146.348 4.551 4.551 0 0 1 1.534.913 3.682 3.682 0 0 1 .913 1.336 4.231 4.231 0 0 1 .3 1.619 3.81 3.81 0 0 1-.9 2.588 2.789 2.789 0 0 1-.725.612 3.881 3.881 0 0 1-.565.254m-2.993-1.543a1.454 1.454 0 0 0 1.139-.452 1.614 1.614 0 0 0 .009-2.127 1.422 1.422 0 0 0-1.139-.471h-1.591v3.049z" transform="translate(-8.478 249.88)" style="fill:#fff"/>
        <path data-name="Rectangle 33" transform="translate(377.333 289.121)" style="fill:#fff" d="M0 0h3.661v12.715H0z"/>
        <path data-name="Path 167" d="M402.235 51.964h-9.995v-3.952l5.082-5.694H392.6V39.24h9.214v3.642l-5.336 6h5.76z" transform="translate(-9.561 249.88)" style="fill:#fff"/>
        <path data-name="Path 168" d="M413.77 48.887v3.078h-9.11V39.24h8.856v3.078h-5.2v1.835h3.972v2.833h-3.972v1.9z" transform="translate(-10.292 249.88)" style="fill:#fff"/>
        <path data-name="Path 169" d="M422.9 44.409a4.943 4.943 0 0 1 1.384.508 4.031 4.031 0 0 1 1.054.828 3.71 3.71 0 0 1 .687 1.082 3.416 3.416 0 0 1 .245 1.289 4.2 4.2 0 0 1-.3 1.562 3.576 3.576 0 0 1-.956 1.322 4.886 4.886 0 0 1-1.638.913 8.478 8.478 0 0 1-4.809-.019 7.9 7.9 0 0 1-1.694-.819 5.952 5.952 0 0 1-1.054-.885 22.272 22.272 0 0 1-.5-.565l2.08-2.014a4.37 4.37 0 0 0 .4.414 4.691 4.691 0 0 0 .772.593 6.107 6.107 0 0 0 1.111.536 3.883 3.883 0 0 0 1.384.235 1.828 1.828 0 0 0 1.092-.292.909.909 0 0 0 .414-.762.965.965 0 0 0-.273-.631 1.757 1.757 0 0 0-.951-.442c-.075-.028-.226-.056-.433-.1s-.433-.094-.668-.151-.461-.1-.687-.151-.376-.085-.461-.113a5.542 5.542 0 0 1-1.3-.433 3.826 3.826 0 0 1-1.016-.744 3.135 3.135 0 0 1-.668-1.073 4.362 4.362 0 0 1 .122-3.143 3.564 3.564 0 0 1 1.026-1.289 4.636 4.636 0 0 1 1.609-.819 7.327 7.327 0 0 1 2.108-.282 6.534 6.534 0 0 1 2.174.32 7.164 7.164 0 0 1 1.543.725 5.233 5.233 0 0 1 .96.781c.226.245.358.4.4.461l-2.071 2.033c-.1-.085-.254-.207-.452-.376a6.377 6.377 0 0 0-.7-.48 5.243 5.243 0 0 0-.894-.414 3.057 3.057 0 0 0-1.073-.179 1.469 1.469 0 0 0-1.026.292.945.945 0 0 0-.028 1.374 1.7 1.7 0 0 0 .922.452c.066.009.207.038.4.085s.424.094.649.141.452.1.668.141a2.229 2.229 0 0 1 .433.094" transform="translate(-10.919 249.897)" style="fill:#fff"/>
        <path data-name="Path 170" d="M430.472 52.162a1.606 1.606 0 0 1-.668-.141 1.869 1.869 0 0 1-.555-.376 1.755 1.755 0 0 1-.376-.555 1.629 1.629 0 0 1-.132-.668 1.773 1.773 0 0 1 .132-.678 1.779 1.779 0 0 1 .932-.932 1.606 1.606 0 0 1 .668-.141 1.682 1.682 0 0 1 .678.141 1.656 1.656 0 0 1 .555.376 1.757 1.757 0 0 1 .377.555 1.643 1.643 0 0 1 .132.678 1.836 1.836 0 0 1-.132.668 1.78 1.78 0 0 1-.932.932 1.618 1.618 0 0 1-.678.141m1.666-4.216h-3.285V39.24h3.285z" transform="translate(-11.709 249.88)" style="fill:#fff"/>
        <g data-name="Apple Music">
            <g data-name="Group 101" style="clip-path:url(#aze7i4lwab)" transform="translate(160)">
                <path data-name="Path 58" d="M25.583 5.023A7.072 7.072 0 0 0 27.2 0a6.945 6.945 0 0 0-4.608 2.4 6.62 6.62 0 0 0-1.652 4.828 5.787 5.787 0 0 0 4.647-2.2" transform="translate(-8.32)" style="fill:#fff"/>
                <path data-name="Path 59" d="M18.857 12.508c-2.567-.154-4.749 1.464-5.974 1.464s-3.1-1.387-5.133-1.349a7.564 7.564 0 0 0-6.434 3.929C-1.442 21.329.588 28.416 3.27 32.307c1.3 1.925 2.872 4.045 4.94 3.968C10.163 36.2 10.929 35 13.3 35s3.063 1.272 5.132 1.234c2.145-.039 3.486-1.926 4.788-3.853a17.123 17.123 0 0 0 2.143-4.43 6.991 6.991 0 0 1-4.169-6.351 7.132 7.132 0 0 1 3.37-5.971 7.324 7.324 0 0 0-5.707-3.119" transform="translate(0 -4.936)" style="fill:#fff"/>
                <path data-name="Path 60" d="M75.547 32.537V11.271h-.139l-8.667 21.266h-3.307l-8.685-21.266h-.14v21.266h-4.064V3.641h5.16l9.3 23.029h.16l9.287-23.029h5.179v28.9z" transform="translate(-20.121 -1.438)" style="fill:#fff"/>
                <path data-name="Path 61" d="M124.246 37.648h-4.124v-3.564h-.1a6.569 6.569 0 0 1-6.495 3.945c-4.562 0-7.351-2.984-7.351-7.81V16.582h4.3v12.8c0 3.2 1.514 4.926 4.482 4.926 3.108 0 4.981-2.163 4.981-5.447V16.582h4.3z" transform="translate(-42.267 -6.549)" style="fill:#fff"/>
                <path data-name="Path 62" d="M150.083 15.953c4.881 0 8.048 2.723 8.188 6.608h-4.045c-.239-2.043-1.733-3.324-4.144-3.324-2.331 0-3.885 1.142-3.885 2.824 0 1.321.956 2.223 3.227 2.743l3.406.781c4.284 1 5.917 2.683 5.917 5.727 0 3.845-3.566 6.488-8.506 6.488-5.239 0-8.387-2.584-8.786-6.588h4.263c.4 2.2 1.892 3.284 4.522 3.284 2.589 0 4.183-1.081 4.183-2.8 0-1.362-.776-2.163-3.068-2.684l-3.406-.8c-3.985-.921-5.957-2.844-5.957-5.908 0-3.765 3.268-6.348 8.089-6.348" transform="translate(-56.312 -6.301)" style="fill:#fff"/>
                <path data-name="Path 63" d="M175.147 5.761a2.481 2.481 0 1 1 2.49 2.483 2.48 2.48 0 0 1-2.49-2.483m.339 5.566h4.3v21.067h-4.3z" transform="translate(-69.723 -1.295)" style="fill:#fff"/>
                <path data-name="Path 64" d="M203.238 23.584a4.761 4.761 0 0 0-4.921-4.025c-3.327 0-5.518 2.784-5.518 7.309 0 4.626 2.211 7.309 5.559 7.309a4.613 4.613 0 0 0 4.88-3.9h4.144c-.459 4.485-4.025 7.529-9.065 7.529-6 0-9.9-4.125-9.9-10.934 0-6.689 3.9-10.914 9.861-10.914 5.4 0 8.686 3.484 9.064 7.63z" transform="translate(-75.006 -6.301)" style="fill:#fff"/>
            </g>
        </g>
    </g>
</svg>
